name ./resultDataOpenSim/trcMotMarkerGrf/sub06/grf-02-03.mot
datacolumns 19
datarows 12
range 1.54800000 1.59200000
endheader

                time	     ground_force_vx	     ground_force_vy	     ground_force_vz	     ground_force_px	     ground_force_py	     ground_force_pz	   l_ground_force_vx	   l_ground_force_vy	   l_ground_force_vz	   l_ground_force_px	   l_ground_force_py	   l_ground_force_pz	     ground_torque_x	     ground_torque_y	     ground_torque_z	   l_ground_torque_x	   l_ground_torque_y	   l_ground_torque_z	
          1.54800000	        168.02579298	        734.66086104	        -28.35348966	          0.83187252	          0.00000000	          0.10472532	          0.00000000	          0.00000000	          0.00000000	          0.00000000	          0.00000000	          0.00000000	          0.00000000	          4.37452903	          0.00000000	          0.00000000	          0.00000000	          0.00000000	
          1.55200000	        174.05000618	        728.82157616	        -29.76647925	          0.83208170	          0.00000000	          0.10453301	          0.00000000	          0.00000000	          0.00000000	          0.00000000	          0.00000000	          0.00000000	          0.00000000	          4.37468366	          0.00000000	          0.00000000	          0.00000000	          0.00000000	
          1.55600000	        180.30817362	        720.71306289	        -30.30611817	          0.83219891	          0.00000000	          0.10432304	          0.00000000	          0.00000000	          0.00000000	          0.00000000	          0.00000000	          0.00000000	          0.00000000	          4.33454100	          0.00000000	          0.00000000	          0.00000000	          0.00000000	
          1.56000000	        186.90933221	        710.21520806	        -29.93844214	          0.83216964	          0.00000000	          0.10409696	          0.00000000	          0.00000000	          0.00000000	          0.00000000	          0.00000000	          0.00000000	          0.00000000	          4.23708397	          0.00000000	          0.00000000	          0.00000000	          0.00000000	
          1.56400000	        193.78612242	        697.25625353	        -28.76248305	          0.83199912	          0.00000000	          0.10385769	          0.00000000	          0.00000000	          0.00000000	          0.00000000	          0.00000000	          0.00000000	          0.00000000	          4.07527335	          0.00000000	          0.00000000	          0.00000000	          0.00000000	
          1.56800000	        200.72550243	        681.79368122	        -26.93211641	          0.83171743	          0.00000000	          0.10359361	          0.00000000	          0.00000000	          0.00000000	          0.00000000	          0.00000000	          0.00000000	          0.00000000	          3.85575102	          0.00000000	          0.00000000	          0.00000000	          0.00000000	
          1.57200000	        207.42110616	        663.72310879	        -24.64366977	          0.83133613	          0.00000000	          0.10329799	          0.00000000	          0.00000000	          0.00000000	          0.00000000	          0.00000000	          0.00000000	          0.00000000	          3.59709655	          0.00000000	          0.00000000	          0.00000000	          0.00000000	
          1.57600000	        213.48057012	        642.79596237	        -22.12255179	          0.83084460	          0.00000000	          0.10298731	          0.00000000	          0.00000000	          0.00000000	          0.00000000	          0.00000000	          0.00000000	          0.00000000	          3.32305038	          0.00000000	          0.00000000	          0.00000000	          0.00000000	
          1.58000000	        218.44599422	        618.65179509	        -19.57462736	          0.83024936	          0.00000000	          0.10268007	          0.00000000	          0.00000000	          0.00000000	          0.00000000	          0.00000000	          0.00000000	          0.00000000	          3.05395582	          0.00000000	          0.00000000	          0.00000000	          0.00000000	
          1.58400000	        221.83880167	        590.92917719	        -17.14742834	          0.82955896	          0.00000000	          0.10237441	          0.00000000	          0.00000000	          0.00000000	          0.00000000	          0.00000000	          0.00000000	          0.00000000	          2.80065303	          0.00000000	          0.00000000	          0.00000000	          0.00000000	
          1.58800000	        223.16366883	        559.33071528	        -14.91228067	          0.82878127	          0.00000000	          0.10205408	          0.00000000	          0.00000000	          0.00000000	          0.00000000	          0.00000000	          0.00000000	          0.00000000	          2.56352411	          0.00000000	          0.00000000	          0.00000000	          0.00000000	
          1.59200000	        221.86708194	        523.62188413	        -12.86082856	          0.82793914	          0.00000000	          0.10169354	          0.00000000	          0.00000000	          0.00000000	          0.00000000	          0.00000000	          0.00000000	          0.00000000	          2.33655852	          0.00000000	          0.00000000	          0.00000000	          0.00000000	
